<?xml version="1.0" encoding="utf-8"?>
<!-- Generator: Adobe Illustrator 27.5.0, SVG Export Plug-In . SVG Version: 6.00 Build 0)  -->
<svg version="1.1" xmlns="http://www.w3.org/2000/svg" xmlns:xlink="http://www.w3.org/1999/xlink" x="0px" y="0px"
	 viewBox="0 0 2200 2200" style="enable-background:new 0 0 2200 2200;" xml:space="preserve">

<g id="Objects">
	<g>
		<path fill="#FFFFFF" d="M1431.716,1274.075c29.267-209.183-94.499-302.073-253.802-326.411c3.03,197.398,9.502,429.202,6.291,558.708
			c-2.537,102.247-97.188,185.185-217.076,185.185s-217.076-82.909-217.076-185.185c0-102.276,97.188-185.185,217.076-185.185
			c65.703,0,111.981,29.717,133,54.36c-2.899-254.403-6.762-530.05-8.698-671.16c-0.725-52.91,15.634-65.956,36.964-65.956
			c33.341,0,34.442,38.081,44.937,55.809c27.433,50.272,82.098,54.57,139.008,76.669c91.991,35.74,164.478,125.295,185.221,228.861
			C1516.763,1095.565,1491.091,1200.385,1431.716,1274.075z"/>
		<path fill="#FFFFFF" d="M1628.123,497.467c10.888-77.818-35.155-112.374-94.417-121.429c1.127,73.434,3.535,159.668,2.34,207.845
			c-0.944,38.037-36.155,68.891-80.755,68.891s-80.755-30.843-80.755-68.891c0-38.048,36.155-68.891,80.755-68.891
			c24.442,0,41.658,11.055,49.477,20.222c-1.078-94.641-2.516-197.184-3.236-249.679c-0.27-19.683,5.816-24.536,13.751-24.536
			c12.403,0,12.813,14.166,16.717,20.762c10.205,18.702,30.541,20.301,51.713,28.522c34.222,13.296,61.188,46.611,68.904,85.139
			C1659.762,431.059,1650.211,470.053,1628.123,497.467z"/>
		<path fill="#FFFFFF" d="M868.03,947.047c12.559-89.761-40.549-129.62-108.906-140.063c1.3,84.704,4.077,184.171,2.7,239.742
			c-1.089,43.874-41.703,79.463-93.147,79.463s-93.147-35.576-93.147-79.463s41.703-79.463,93.147-79.463
			c28.193,0,48.051,12.751,57.07,23.326c-1.244-109.164-2.902-227.445-3.732-287.995c-0.311-22.704,6.708-28.302,15.862-28.302
			c14.306,0,14.779,16.34,19.283,23.948c11.772,21.572,35.228,23.416,59.649,32.899c39.473,15.336,70.577,53.764,79.479,98.204
			C904.524,870.448,893.508,915.427,868.03,947.047z"/>
	</g>
</g>
</svg>
