<?xml version="1.0" encoding="utf-8"?>
<!-- Generator: Adobe Illustrator 27.5.0, SVG Export Plug-In . SVG Version: 6.00 Build 0)  -->
<svg version="1.1" id="Capa_1" xmlns="http://www.w3.org/2000/svg" xmlns:xlink="http://www.w3.org/1999/xlink" x="0px" y="0px"
	 viewBox="0 0 2122 2122" style="enable-background:new 0 0 2122 2122;" xml:space="preserve">
<path style="fill:#54428F;" d="M1951.266,872.896l67.296-39.108c-3.869-17.438-8.508-35.174-13.725-53.169
	c-5.279-18.105-11.138-35.954-17.512-53.731l-86.867-37.236c-27.816-66.62-64.188-129.396-106.103-185.038l12.467-92.666
	c-24.455-29.25-50.135-56.55-76.721-81.421l-66.362,38.565c-21.278-16.819-42.99-31.682-64.881-44.323
	c-24.473-14.13-49.169-25.481-73.745-33.689l-52.486-110.829c-13.223-3.058-26.321-5.306-39.42-6.743
	c-13.036-1.4-25.624-1.951-37.894-1.654l-180.38,104.826l-3.297-2.434L999.264,397.663c-13.289,20.522-24.146,43.852-32.57,69.619
	l69.276,101.554c-8.403,37.877-10.961,80.875-7.054,127.733c-20.48-19.671-41.601-38.106-63.251-55.109h0l-28.502-142.227
	c-17.759-12.172-35.647-23.532-53.797-34.01c-18.147-10.478-36.042-19.777-53.811-28.117l-146.04,84.869
	c-22.282-0.596-43.588,1.359-63.747,5.769l-97.484-121.676L309.91,529.485c-27.842,10.201-53.32,24.794-76.305,43.409
	l56.564,145.144c-12.853,13.757-24.388,29.413-34.484,46.872l-150.183,87.277c-1.788,19.339-2.681,39.416-2.74,60.344
	c-0.059,20.854,0.717,41.895,2.39,63.306l109.117,96.213c11.777,82.823,37.486,168.08,74.123,250.347l-57.137,79.423
	c22.805,45.052,48.117,88.968,75.81,131.306l97.853-8.973c52.979,72.954,114.01,138.083,180.023,189.998l28.566,142.191
	c17.758,12.245,35.648,23.533,53.795,34.011c18.149,10.478,36.043,19.85,53.813,28.116l146.022-84.858
	c22.292,0.609,43.606-1.325,63.765-5.706l97.42,121.64c27.843-10.275,53.319-24.868,76.368-43.446l212.373-123.418l-56.564-145.07
	c12.841-13.769,24.366-29.415,34.455-46.854l150.213-87.295c1.79-19.412,2.681-39.491,2.74-60.345
	c0.06-20.928-0.715-41.967-2.389-63.305l0,0l-109.117-96.214c-2.361-16.604-5.283-33.308-8.741-50.068
	c18.642,14.214,37.589,26.917,56.672,37.934c24.434,14.107,49.088,25.453,73.624,33.682l52.485,110.829
	c13.224,3.059,26.322,5.306,39.421,6.743c13.035,1.4,25.624,1.952,37.893,1.654l180.384-104.828l3.293,2.437
	c0.357-0.559,0.712-1.119,1.065-1.681c-0.353,0.562-0.708,1.123-1.065,1.681l212.373-123.418
	c13.226-20.707,24.148-43.925,32.507-69.731l-69.149-101.407C1957.079,982.435,1958.761,930.168,1951.266,872.896z
	 M916.728,1423.126c-11.768-4.855-23.797-10.794-36.027-17.856c-139.031-80.27-251.274-274.756-250.821-434.44
	c0.037-13.143,0.837-25.64,2.349-37.466c11.766,4.854,23.791,10.793,36.019,17.852c139.031,80.27,251.274,274.757,250.822,434.514
	C919.032,1398.848,918.235,1411.322,916.728,1423.126z M1381.107,744.391c-8.153-27.884-12.762-54.368-14.124-78.83
	c72.328,47.018,139.086,137.195,168.087,236.387c8.423,28.85,12.984,56.174,14.019,81.254
	C1476.655,934.675,1410.222,843.975,1381.107,744.391z"/>
<polygon style="fill:#3E226B;" points="522.283,406.067 309.91,529.485 407.393,651.161 619.766,527.743 "/>
<path style="fill:#40337F;" d="M1445.517,1379.813l-109.117-96.214c-2.361-16.604-5.283-33.308-8.741-50.068
	c-2.784-2.122-5.561-4.28-8.331-6.469l-66.425,38.602c-26.587-24.945-52.202-52.208-76.72-81.568l12.468-92.592
	c-2.703-3.592-5.384-7.214-8.04-10.866c-7.816-10.741-15.429-21.736-22.817-32.961c-27.493-41.772-51.861-86.719-71.952-133.546
	c-1.089-2.538-2.167-5.08-3.23-7.629l-38.087-16.326l-48.78-20.91c-6.436-17.814-12.233-35.626-17.512-53.658
	c-5.279-18.105-9.855-35.804-13.787-53.279l67.337-39.132c-1.183-9.005-2.137-17.884-2.866-26.628
	c-20.48-19.671-41.601-38.106-63.251-55.109h0l-28.502-142.227c-17.759-12.172-35.647-23.532-53.797-34.01
	c-18.147-10.478-36.042-19.777-53.811-28.117l-146.04,84.869c-22.282-0.596-43.588,1.359-63.748,5.769L407.393,651.161
	c26.609-5.82,55.214-7.37,85.428-4.411c1.888,0.185,3.783,0.387,5.684,0.608c0.95,0.11,1.902,0.225,2.856,0.344
	c4.767,0.595,9.573,1.3,14.416,2.117c6.78,1.143,13.632,2.506,20.553,4.089c3.955,0.905,7.932,1.882,11.93,2.932
	c0.999,0.262,2.001,0.529,3.003,0.801c2.005,0.543,4.015,1.104,6.03,1.684c1.008,0.289,2.017,0.584,3.027,0.883
	c9.092,2.69,18.289,5.749,27.583,9.184l29.279-108.867c17.768,8.34,35.663,17.639,53.812,28.117
	c18.149,10.479,36.036,21.839,53.795,34.01l28.503,142.228c26.818,21.061,52.824,44.32,77.804,69.403
	c1.921,1.929,3.836,3.87,5.746,5.82c8.592,8.779,17.059,17.772,25.392,26.966c1.852,2.043,3.697,4.095,5.536,6.158
	c4.596,5.156,9.15,10.372,13.661,15.647c1.804,2.11,3.601,4.229,5.392,6.357c3.58,4.256,7.133,8.548,10.657,12.876
	c2.642,3.245,5.269,6.511,7.878,9.795c0.87,1.095,1.738,2.192,2.604,3.29c8.663,10.989,17.138,22.189,25.417,33.576l97.789-8.863
	c27.694,42.264,53.004,86.18,75.873,131.269l-57.202,79.461c36.702,82.23,62.41,167.561,74.188,250.384l109.117,96.214
	c1.674,21.338,2.448,42.377,2.389,63.306c-0.059,20.853-0.951,40.932-2.74,60.345l-109.306-29.894
	c-5.341,30.177-13.342,57.744-23.756,82.536c-0.743,1.771-1.5,3.528-2.269,5.27c-2.689,6.099-5.528,12.023-8.513,17.77
	c-0.853,1.642-1.717,3.27-2.594,4.883c-0.438,0.807-0.88,1.609-1.324,2.409c-0.606,1.091-1.219,2.173-1.836,3.25
	c-2.821,4.926-5.757,9.709-8.803,14.349c-0.52,0.792-1.044,1.58-1.57,2.364c-0.658,0.979-1.319,1.954-1.987,2.92
	c-0.502,0.726-1.006,1.448-1.514,2.167c-2.252,3.188-4.561,6.301-6.923,9.343c-0.932,1.2-1.872,2.39-2.821,3.567
	c-1.993,2.472-4.022,4.893-6.089,7.263c-1.761,2.021-3.549,4.005-5.363,5.951l56.564,145.069l212.373-123.418l-56.564-145.07
	c12.841-13.769,24.366-29.415,34.455-46.854l150.213-87.295c1.79-19.412,2.681-39.491,2.74-60.345
	C1447.966,1422.19,1447.191,1401.151,1445.517,1379.813L1445.517,1379.813z"/>
<path style="fill:#40337F;" d="M1684.705,1257.812c-0.422,0.499-0.846,0.995-1.272,1.489l-0.401,0.46l-0.877,1.006l-0.508,0.571
	l-0.79,0.886l-0.549,0.605l-0.754,0.828l-0.592,0.638l-0.729,0.784l-0.638,0.673l-0.674,0.709l-0.702,0.726l-0.645,0.663
	l-0.677,0.687l-0.69,0.695l-0.658,0.653l-0.728,0.718l-0.629,0.611l-0.754,0.727l-0.628,0.598l-0.779,0.735l-0.635,0.59
	l-0.764,0.705l-0.65,0.592l-0.764,0.69l-0.678,0.605l-0.762,0.672l-0.653,0.57l-0.792,0.683l-0.693,0.592l-0.73,0.616l-0.724,0.606
	l-0.783,0.646l-0.677,0.554l-0.8,0.645l-0.699,0.559l-0.782,0.615l-0.719,0.563l-0.827,0.636l-0.664,0.508l-0.893,0.671
	l-0.639,0.477l-0.892,0.654l-0.646,0.472l-0.973,0.696l-0.568,0.406l-1.104,0.772l-0.46,0.321l-1.067,0.727l-1.028,0.693
	l-1.063,0.707l-0.482,0.312l-1.109,0.72l-0.586,0.372l-1.037,0.656l-0.588,0.364l-1.02,0.629l-0.713,0.43l-0.906,0.544l-0.761,0.448
	c-18.758,11.019-39.814,18.496-62.954,22.014l11.004,106.365l180.384-104.828l-74.324-54.992L1684.705,1257.812z"/>
<path style="fill:#40337F;" d="M1951.266,872.896l67.296-39.108c-3.869-17.438-8.508-35.174-13.725-53.169
	c-5.279-18.105-11.138-35.954-17.512-53.731l-86.867-37.236c-27.816-66.62-64.188-129.396-106.103-185.038l12.467-92.666
	c-24.455-29.25-50.135-56.55-76.721-81.421l-66.362,38.565c-21.278-16.819-42.99-31.682-64.881-44.323
	c-24.473-14.13-49.169-25.481-73.745-33.689l-52.486-110.829c-13.223-3.058-26.321-5.306-39.42-6.743
	c-13.036-1.4-25.624-1.951-37.894-1.654l-180.38,104.826l-3.297-2.434L999.264,397.663l86.728,64.022
	c13.228-15.62,28.552-28.573,45.804-38.561l0.971-0.557l0.754-0.428l0.963-0.537l0.769-0.426l1.052-0.57l0.673-0.363l1.129-0.594
	l0.641-0.336l1.064-0.544l0.725-0.37l1.113-0.552l0.663-0.328c0.47-0.229,0.944-0.456,1.416-0.682l0.379-0.182
	c0.6-0.284,1.202-0.565,1.805-0.843l0.624-0.282l1.191-0.539l0.79-0.347l1.049-0.46l0.813-0.346l1.031-0.437l0.789-0.325
	l1.089-0.447l0.805-0.321l1.044-0.414l0.841-0.325l1.066-0.408l0.811-0.302l1.067-0.394l0.888-0.319l1.018-0.362l0.884-0.307
	l1.024-0.351l0.937-0.313l0.986-0.325l0.944-0.304l1.008-0.319l0.935-0.289l1.031-0.313l0.911-0.271l1.081-0.315l0.888-0.253
	l1.082-0.301l0.921-0.252l1.035-0.275l0.984-0.257l1.031-0.261l0.955-0.238l1.066-0.258l0.966-0.23l1.094-0.251l0.91-0.206
	l1.164-0.254l0.894-0.192l1.113-0.229l0.952-0.194l1.143-0.221l0.806-0.155l0.004-0.002l0.101-0.018
	c0.453-0.085,0.907-0.166,1.36-0.248l0.7-0.127c0.47-0.083,0.942-0.162,1.414-0.242l0.703-0.119
	c0.695-0.115,1.392-0.226,2.091-0.334l-1.421-13.732l-9.582-92.559c12.269-0.297,24.858,0.254,37.894,1.654
	c4.912,0.539,9.823,1.192,14.742,1.959c3.28,0.511,6.562,1.073,9.848,1.685c1.644,0.306,3.289,0.626,4.934,0.957
	c3.292,0.663,6.59,1.377,9.896,2.141l52.486,110.829c24.576,8.208,49.271,19.559,73.745,33.689
	c26.27,15.168,52.284,33.536,77.596,54.647l53.646-48.89c11.632,10.882,23.09,22.228,34.348,33.998
	c4.02,4.204,8.015,8.462,11.984,12.772c0.793,0.862,1.586,1.727,2.378,2.593c3.958,4.331,7.888,8.714,11.791,13.148
	c0.781,0.887,1.559,1.775,2.338,2.666c4.67,5.344,9.298,10.76,13.883,16.244h0.001l-12.467,92.666
	c17.683,23.474,34.378,48.217,49.862,73.984c1.147,1.908,2.287,3.823,3.421,5.742c2.267,3.84,4.508,7.701,6.719,11.584
	c1.107,1.941,2.206,3.888,3.298,5.84c2.185,3.904,4.341,7.828,6.468,11.773c1.064,1.972,2.121,3.95,3.17,5.932
	c2.098,3.965,4.168,7.948,6.208,11.952c1.02,2.002,2.032,4.007,3.036,6.018c2.009,4.021,3.988,8.062,5.936,12.119
	c6.332,13.188,12.335,26.561,17.985,40.093l86.867,37.236c6.374,17.777,12.232,35.626,17.512,53.731
	c2.608,8.997,5.072,17.93,7.367,26.793c0.574,2.216,1.138,4.427,1.69,6.634c0.276,1.104,0.55,2.206,0.821,3.307
	c1.353,5.506,2.637,10.985,3.847,16.434l-70.072,20.215c3.295,20.217,5.474,39.861,6.579,58.84c0.111,1.898,0.21,3.789,0.3,5.674
	c0.8,16.96,0.733,33.373-0.173,49.17c-0.101,1.755-0.212,3.503-0.333,5.243c-0.121,1.74-0.252,3.472-0.395,5.197
	c-0.141,1.724-0.293,3.441-0.457,5.15c-0.162,1.709-0.335,3.41-0.517,5.103c-0.367,3.385-0.774,6.74-1.221,10.061
	c-0.224,1.66-0.457,3.313-0.7,4.957c-0.122,0.822-0.247,1.642-0.374,2.46c-0.635,4.089-1.332,8.128-2.092,12.111
	c-0.608,3.188-1.256,6.341-1.943,9.459l0,0l69.149,101.406c-4.963,15.321-10.83,29.732-17.545,43.245
	c-0.353,0.711-0.709,1.42-1.068,2.126c-0.717,1.412-1.443,2.815-2.177,4.208c-0.368,0.696-0.737,1.39-1.11,2.082
	c-0.744,1.382-1.498,2.755-2.26,4.118c-0.763,1.363-1.535,2.717-2.317,4.06c-0.39,0.672-0.783,1.341-1.179,2.008l-0.654,1.093
	c-1.373,2.292-2.77,4.557-4.197,6.79l212.373-123.418c13.226-20.707,24.148-43.925,32.507-69.731l-69.149-101.407
	C1957.079,982.435,1958.761,930.168,1951.266,872.896z"/>
<path style="fill:#3E226B;" d="M721.115,1918.47l146.022-84.858c-36.559-0.999-75.751-8.842-116.808-23.972L721.115,1918.47z"/>
<path style="fill:#3E226B;" d="M255.685,764.91l-150.183,87.277l109.306,29.893C222.78,837.034,236.681,797.774,255.685,764.91z"/>
<polygon style="fill:#3E226B;" points="1260.499,1637.611 1048.126,1761.03 1104.69,1906.099 1317.063,1782.681 "/>
<path style="fill:#5D5CA1;" d="M1445.517,1379.813l-212.374,123.418c1.674,21.338,2.448,42.377,2.389,63.306
	c-0.059,20.853-0.951,40.932-2.74,60.345l62.16-36.124l150.213-87.295c1.79-19.412,2.681-39.491,2.74-60.345
	C1447.966,1422.19,1447.191,1401.151,1445.517,1379.813z"/>
<polygon style="fill:#3E226B;" points="1233.144,1503.231 1445.517,1379.813 1445.517,1379.813 1336.4,1283.599 1124.027,1407.017 
	"/>
<polygon style="fill:#3E226B;" points="753.291,764.878 965.664,641.46 965.664,641.46 937.162,499.233 724.789,622.65 "/>
<path style="fill:#5D5CA1;" d="M883.365,465.222c-18.147-10.478-36.042-19.777-53.811-28.117l-146.04,84.869l-66.333,38.548
	c17.768,8.34,35.663,17.639,53.812,28.117c18.149,10.479,36.036,21.839,53.795,34.01l212.374-123.418
	C919.403,487.061,901.516,475.701,883.365,465.222z"/>
<path style="fill:#3E226B;" d="M1049.839,1156.633l130.771-75.996c-7.816-10.741-15.429-21.736-22.817-32.961l-50.753,29.495
	L1049.839,1156.633z"/>
<path style="fill:#3E226B;" d="M1031.167,945.903l54.673-31.773c-1.089-2.538-2.167-5.08-3.23-7.629l-38.087-16.326l-111.145,64.591
	L1031.167,945.903z"/>
<path style="fill:#5D5CA1;" d="M1107.04,1077.172l50.753-29.495c-27.493-41.772-51.861-86.719-71.952-133.546l-54.673,31.773
	C1058.861,988.167,1084.171,1032.083,1107.04,1077.172z"/>
<path style="fill:#3E226B;" d="M1639.02,1296.395l0.683-0.402c-18.758,11.019-39.814,18.496-62.954,22.014l11.004,106.365
	l180.384-104.828l-74.324-54.992L1639.02,1296.395z"/>
<path style="fill:#3E226B;" d="M1131.795,423.124l-0.24,0.137l60.968-35.431l-9.582-92.559l31.993-18.592l-3.297-2.434
	L999.264,397.663l86.728,64.022C1099.219,446.065,1114.543,433.112,1131.795,423.124z"/>
<polygon style="fill:#3E226B;" points="1947.162,1027.426 1734.789,1150.844 1803.938,1252.251 2016.311,1128.833 "/>
<path style="fill:#5D5CA1;" d="M1786.393,1295.496c-1.414,2.845-2.866,5.65-4.354,8.416c-0.744,1.382-1.498,2.755-2.26,4.118
	c-0.763,1.363-1.535,2.717-2.317,4.06c-0.39,0.672-0.783,1.341-1.179,2.008l-0.654,1.093c-1.373,2.292-2.77,4.557-4.197,6.79
	l212.373-123.418c13.226-20.707,24.148-43.925,32.507-69.731l-212.373,123.418
	C1798.975,1267.572,1793.109,1281.983,1786.393,1295.496z"/>
<path style="fill:#5D5CA1;" d="M1220.836,296.925c4.912,0.539,9.823,1.192,14.742,1.959c3.28,0.511,6.562,1.073,9.848,1.685
	c1.644,0.306,3.289,0.626,4.934,0.957c3.292,0.663,6.59,1.377,9.896,2.141l212.373-123.418c-13.223-3.058-26.321-5.306-39.42-6.743
	c-13.036-1.4-25.624-1.951-37.894-1.654l-180.38,104.826l-31.993,18.592C1195.21,294.974,1207.8,295.526,1220.836,296.925z"/>
<polygon style="fill:#3E226B;" points="1312.741,414.497 1525.114,291.079 1472.629,180.25 1260.255,303.668 "/>
<polygon style="fill:#3E226B;" points="1774.952,850.305 1987.325,726.887 1900.458,689.651 1688.085,813.069 "/>
<path style="fill:#5D5CA1;" d="M1774.952,850.305c6.374,17.777,12.232,35.626,17.512,53.731c2.608,8.997,5.072,17.93,7.367,26.793
	c0.574,2.216,1.138,4.427,1.69,6.634c0.276,1.104,0.55,2.206,0.821,3.307c1.353,5.506,2.637,10.985,3.847,16.434v0.001
	l145.078-84.31l67.296-39.108c-3.869-17.438-8.508-35.174-13.725-53.169c-5.279-18.105-11.138-35.954-17.512-53.731
	L1774.952,850.305z"/>
<path style="fill:#5D5CA1;" d="M1552.076,487.942c4.02,4.204,8.015,8.462,11.984,12.772c0.793,0.862,1.586,1.727,2.378,2.593
	c3.958,4.331,7.888,8.714,11.791,13.148c0.781,0.887,1.559,1.775,2.338,2.666c4.67,5.344,9.298,10.76,13.883,16.244h0.001
	l212.373-123.418c-24.455-29.25-50.135-56.55-76.721-81.421l-66.362,38.565l-146.012,84.853
	C1529.36,464.825,1540.818,476.171,1552.076,487.942z"/>
<path style="fill:#3E226B;" d="M1243.646,1612.404l192.981-112.094c10.191-53.499,0-103.814,0-103.814
	C1418.794,1507.953,1243.646,1612.404,1243.646,1612.404z"/>
<path style="fill:#3E226B;" d="M921.376,499.233c-39.487-28.362-90.863-56.81-90.863-56.81
	c71.332,64.964-103.359,173.625-103.359,173.625L921.376,499.233z"/>
<path style="fill:#29164E;" d="M1306.063,1776.724l-49.678-122.284l-191.069,106.59
	C1255.748,1706.485,1306.063,1776.724,1306.063,1776.724z"/>
<path style="fill:#3E226B;" d="M1939.564,1021.151c11.039-44.158,4.81-136.296,4.81-136.296
	c-8.208,123.558-198.002,252.212-198.002,252.212L1939.564,1021.151z"/>
<path style="fill:#3E226B;" d="M1794.563,516.656c84.071,165.241-100.161,284.341-100.161,284.341l193.785-111.346
	C1854.432,608.834,1794.563,516.656,1794.563,516.656z"/>
<path style="fill:#3E226B;" d="M1464.438,496.086l39.438-38.331l145.262-87.939c-30.571-30.146-119.462-72.443-119.462-72.443
	C1581.773,344.818,1464.438,496.086,1464.438,496.086z"/>
<path style="fill:#29164E;" d="M1752.528,1150.844c203.397-77.256,248.391-22.012,248.391-22.012l-55.417-83.746L1752.528,1150.844z
	"/>
<path style="fill:#EBEDEE;" d="M703.797,876.265c-83.104-47.98-158.367-52.43-212.714-20.847l-35.396,20.57l0.494-0.284
	c-53.974,31.078-87.454,97.552-87.723,192.133c-0.538,189.675,132.799,420.771,297.994,516.147
	c83.134,47.997,158.472,52.403,212.851,20.721l-0.136,0.08l35.395-20.569c53.674-31.191,86.962-97.502,87.229-191.729
	C1002.33,1202.737,868.865,971.567,703.797,876.265z M916.728,1423.126c-11.768-4.855-23.797-10.794-36.027-17.856
	c-139.031-80.27-251.274-274.756-250.821-434.44c0.037-13.143,0.837-25.64,2.349-37.466c11.766,4.854,23.791,10.793,36.019,17.852
	c139.031,80.27,251.274,274.757,250.822,434.514C919.032,1398.848,918.235,1411.322,916.728,1423.126z"/>
<path style="fill:#EBEDEE;" d="M1636.926,888.602c-41.866-143.256-141.381-272.789-246.585-333.529
	c-33.554-19.372-67.68-31.746-100.708-35.34c-34.404-3.725-64.333,2.434-88.976,16.755l-35.396,20.569l0.361-0.207
	c-73.46,42.365-100.174,157.029-58.796,298.614c41.867,143.2,141.394,272.818,246.597,333.557
	c33.555,19.373,67.669,31.736,100.697,35.312c34.468,3.751,64.438-2.437,89.102-16.82l-0.164,0.097l35.396-20.57
	C1651.647,1144.505,1678.194,1029.891,1636.926,888.602z M1381.107,744.391c-8.153-27.884-12.762-54.368-14.124-78.83
	c72.328,47.018,139.086,137.195,168.087,236.387c8.423,28.85,12.984,56.174,14.019,81.254
	C1476.655,934.675,1410.222,843.975,1381.107,744.391z"/>
<path style="fill:#B7CAD7;" d="M1549.088,983.203c-72.434-48.528-138.867-139.228-167.982-238.812
	c-8.153-27.884-12.762-54.368-14.124-78.83c-4.065-2.643-8.148-5.151-12.243-7.514c-24.535-14.164-49.501-23.218-73.657-25.852
	c-15.99-1.731-30.656-0.544-43.849,3.238c-0.834,0.258-1.661,0.527-2.482,0.805l0.091-0.085c-6.741,2.122-13.085,4.935-19.009,8.395
	l-0.981,0.581l-0.137,0.081l-1.033,0.634l-0.335,0.209l-0.985,0.626l-0.081,0.052l-1.048,0.689l-0.317,0.213l-0.913,0.621
	l-0.141,0.097l-1.015,0.714l-0.307,0.219l-0.89,0.647l-0.149,0.109l-1.003,0.754l-0.278,0.212l-0.89,0.69l-0.134,0.104l-0.971,0.778
	l-0.301,0.245l-0.846,0.7l-0.136,0.113l-0.946,0.807l-0.3,0.26l-0.793,0.697l-0.173,0.153l-0.926,0.841l-0.264,0.243l-0.846,0.79
	l-0.098,0.092l-0.911,0.877l-0.28,0.274l-0.744,0.739l-0.185,0.185l-0.854,0.872l-0.3,0.312l-0.711,0.749l-0.177,0.188l-0.842,0.913
	l-0.28,0.308l-0.676,0.755l-0.202,0.227l-0.822,0.945l-0.253,0.295l-0.674,0.797l-0.186,0.222l-0.802,0.977l-0.241,0.299
	l-0.704,0.883l-0.121,0.152l-0.787,1.017l-0.251,0.329l-0.677,0.9l-0.112,0.151l-0.772,1.056l-0.232,0.322l-0.64,0.901l-0.138,0.196
	l-0.759,1.102l-0.176,0.259l-0.662,0.988l-0.121,0.183l-0.723,1.11l-0.198,0.31l-0.579,0.914l-0.187,0.298l-0.687,1.12l-0.169,0.28
	l-0.594,0.999l-0.145,0.245l-0.686,1.186l-0.144,0.253l-0.574,1.021l-0.151,0.271l-0.637,1.168l-0.185,0.347l-0.543,1.028
	l-0.121,0.229l-0.624,1.216l-0.185,0.367l-0.474,0.953l-0.172,0.349l-0.598,1.242l-0.136,0.288l-0.504,1.08l-0.133,0.286
	l-0.569,1.256l-0.164,0.37l-0.473,1.081l-0.11,0.252l-0.547,1.291l-0.164,0.394l-0.422,1.029l-0.146,0.359l-0.523,1.318
	l-0.121,0.313l-0.438,1.138l-0.113,0.298l-0.497,1.34l-0.141,0.387l-0.402,1.121l-0.109,0.308c-0.16,0.456-0.319,0.914-0.476,1.374
	l-0.126,0.374l-0.366,1.096l-0.133,0.401c-0.147,0.451-0.292,0.904-0.437,1.359l-0.121,0.385l-0.347,1.122l-0.123,0.405
	c-0.138,0.455-0.274,0.912-0.409,1.37l-0.126,0.435l-0.309,1.079l-0.127,0.45c-0.128,0.457-0.255,0.916-0.379,1.376l-0.126,0.467
	l-0.287,1.088l-0.114,0.439c-0.125,0.486-0.248,0.973-0.37,1.462l-0.081,0.328l-0.303,1.251l-0.09,0.377
	c-0.116,0.49-0.23,0.982-0.342,1.476l-0.091,0.404l-0.274,1.242l-0.077,0.355c-0.109,0.506-0.217,1.015-0.322,1.525l-0.076,0.372
	l-0.251,1.255l-0.082,0.418c-0.097,0.497-0.193,0.996-0.285,1.497l-0.079,0.431l-0.222,1.223l-0.081,0.461
	c-0.087,0.499-0.173,1-0.256,1.503l-0.076,0.461l-0.197,1.224l-0.068,0.429c-0.08,0.519-0.159,1.039-0.236,1.561l-0.063,0.434
	l-0.181,1.27l-0.062,0.445c-0.071,0.525-0.141,1.052-0.209,1.581l-0.052,0.416l-0.162,1.312l-0.052,0.432
	c-0.063,0.535-0.124,1.071-0.184,1.609l-0.045,0.416l-0.136,1.295l-0.053,0.52c-0.053,0.525-0.103,1.052-0.152,1.58l-0.042,0.459
	l-0.112,1.278l-0.043,0.518c-0.045,0.537-0.088,1.076-0.128,1.616l-0.033,0.453l-0.091,1.295l-0.037,0.552
	c-0.035,0.536-0.068,1.074-0.099,1.614l-0.025,0.453l-0.07,1.314l-0.028,0.576c-0.027,0.552-0.051,1.106-0.074,1.661l-0.013,0.346
	c-0.018,0.474-0.036,0.949-0.052,1.426l-0.017,0.522c-0.017,0.553-0.033,1.108-0.047,1.664l-0.012,0.526l-0.026,1.293l-0.009,0.55
	c-0.008,0.559-0.015,1.12-0.02,1.682l-0.002,0.507c-0.004,0.458-0.005,0.918-0.005,1.378l0,0.495
	c0.001,0.571,0.003,1.143,0.007,1.717l0.005,0.535l0.016,1.286l0.01,0.665c0.01,0.567,0.021,1.134,0.034,1.703l0.01,0.385
	c0.012,0.482,0.025,0.966,0.04,1.45l0.018,0.59c0.018,0.586,0.039,1.173,0.062,1.761l0.016,0.39c0.02,0.485,0.041,0.971,0.063,1.458
	l0.029,0.614c0.027,0.573,0.056,1.146,0.087,1.721l0.032,0.559c0.026,0.448,0.051,0.897,0.079,1.347l0.038,0.61
	c0.036,0.585,0.074,1.171,0.116,1.758l0.038,0.538c0.033,0.452,0.065,0.905,0.1,1.359l0.052,0.672
	c0.045,0.583,0.092,1.166,0.142,1.751l0.041,0.486c0.042,0.492,0.086,0.984,0.13,1.477l0.053,0.577
	c0.056,0.605,0.114,1.211,0.174,1.819l0.051,0.495c0.047,0.47,0.095,0.941,0.145,1.412l0.076,0.709
	c0.064,0.597,0.129,1.195,0.197,1.795l0.051,0.436c0.055,0.483,0.112,0.967,0.17,1.451l0.087,0.72
	c0.072,0.594,0.147,1.189,0.222,1.786l0.07,0.537c0.06,0.467,0.122,0.934,0.184,1.402l0.104,0.765
	c0.071,0.523,0.144,1.046,0.218,1.57l0.117,0.821l0.194,1.325l0.116,0.774c0.088,0.588,0.178,1.176,0.269,1.766l0.087,0.554
	c0.076,0.48,0.153,0.96,0.232,1.442l0.122,0.752c0.091,0.552,0.183,1.105,0.277,1.659l0.123,0.719
	c0.083,0.479,0.166,0.957,0.25,1.436l0.129,0.727c0.096,0.537,0.193,1.076,0.292,1.615l0.155,0.84
	c0.087,0.466,0.175,0.934,0.264,1.402l0.143,0.748c0.116,0.605,0.234,1.211,0.354,1.817l0.118,0.588
	c0.091,0.462,0.185,0.925,0.279,1.388l0.185,0.905c0.103,0.5,0.208,1,0.313,1.502l0.184,0.866c0.104,0.487,0.209,0.975,0.315,1.463
	l0.172,0.789c0.12,0.541,0.24,1.083,0.362,1.626l0.172,0.765c0.114,0.501,0.229,1.003,0.344,1.506l0.193,0.831
	c0.106,0.459,0.215,0.919,0.324,1.379l0.28,1.172l0.317,1.308l0.21,0.858c0.124,0.504,0.25,1.01,0.377,1.516l0.247,0.977
	c0.118,0.464,0.236,0.929,0.356,1.394l0.236,0.913c0.12,0.461,0.242,0.922,0.364,1.384l0.292,1.1
	c0.127,0.477,0.256,0.953,0.385,1.431l0.219,0.803c0.142,0.519,0.285,1.039,0.429,1.559l0.278,0.994
	c0.134,0.476,0.268,0.952,0.404,1.429l0.259,0.909c0.133,0.464,0.268,0.93,0.403,1.395l0.165,0.567
	c21.535,73.658,63.888,142.362,113.882,192.105c1.13,1.125,2.265,2.239,3.402,3.344c1.074,1.043,2.15,2.077,3.231,3.101l0.175,0.166
	c1.611,1.527,3.229,3.033,4.854,4.52l0.293,0.267c1.026,0.936,2.054,1.865,3.084,2.784c1.278,1.141,2.561,2.269,3.847,3.385
	c2.121,1.84,4.252,3.645,6.393,5.414c0.789,0.652,1.579,1.3,2.371,1.942c2.083,1.691,4.175,3.348,6.274,4.971l0.807,0.622
	c1.471,1.13,2.946,2.241,4.423,3.335l0.927,0.684c0.858,0.631,1.716,1.255,2.575,1.873c1.531,1.101,3.064,2.182,4.6,3.245
	c0.813,0.562,1.625,1.118,2.439,1.669c5.544,3.753,11.124,7.257,16.727,10.491c3.44,1.986,6.887,3.866,10.34,5.648
	c0.783,0.404,1.567,0.803,2.351,1.196c0.778,0.391,1.557,0.776,2.335,1.156c1.501,0.732,3.004,1.445,4.507,2.137
	c0.843,0.388,1.687,0.77,2.531,1.146c17.319,7.713,34.67,12.718,51.618,14.552c0.679,0.074,1.356,0.141,2.031,0.203l0.307,0.03
	c0.633,0.058,1.262,0.11,1.889,0.158l0.434,0.034l0.697,0.048l0.448,0.031l0.639,0.039l0.52,0.031l0.528,0.028l0.612,0.032
	l0.509,0.022l0.639,0.027l0.438,0.015l0.693,0.023l0.642,0.017l0.468,0.011l0.573,0.01l0.582,0.009l0.438,0.004l0.663,0.005l0.591,0
	l0.522-0.002l0.682-0.007l0.411-0.005l0.741-0.015l0.366-0.008l0.601-0.017l0.519-0.016l0.512-0.019l0.587-0.023l0.503-0.024
	l0.575-0.027l0.552-0.031l0.54-0.032l0.436-0.028l0.671-0.045l0.359-0.027l0.695-0.053l0.48-0.041l0.58-0.05l0.598-0.057
	l0.444-0.043l0.565-0.059l0.526-0.056l0.486-0.055l0.559-0.065l0.509-0.063l0.543-0.069l0.462-0.062l0.604-0.082l0.374-0.054
	l0.672-0.098l0.366-0.057l0.656-0.102l0.464-0.077l0.544-0.091l0.457-0.079l0.594-0.106l0.417-0.077l0.588-0.111l0.425-0.083
	l0.594-0.117l0.45-0.093l0.54-0.113l0.49-0.106l0.52-0.114l0.471-0.107l0.524-0.121l0.449-0.106l0.551-0.133l0.458-0.114l0.517-0.13
	l0.493-0.128l0.483-0.127l0.498-0.135l0.478-0.131l0.47-0.133l0.52-0.148l0.413-0.121l0.564-0.167l0.419-0.127l0.259-0.079
	l0.248-0.076l0.498-0.157l0.472-0.151l0.409-0.134l0.576-0.191l0.348-0.118l0.574-0.196l0.433-0.152l0.498-0.177l0.395-0.142
	l0.565-0.207l0.371-0.138l0.532-0.201l0.427-0.166l0.501-0.196l0.404-0.16l0.504-0.203l0.458-0.188l0.429-0.178l0.473-0.2
	l0.472-0.202l0.367-0.16l0.553-0.243l0.368-0.165l0.487-0.22l0.451-0.208l0.435-0.203l0.446-0.212l0.443-0.211l0.436-0.212
	l0.453-0.223l0.386-0.193l0.513-0.26l0.359-0.184l0.501-0.26l0.349-0.184l0.528-0.281l0.341-0.184l0.479-0.261l0.424-0.234
	l0.421-0.235l0.416-0.236l0.44-0.252c6.016-3.478,11.604-7.62,16.739-12.379C1536.781,1082.062,1551.348,1037.988,1549.088,983.203z
	"/>
<path style="fill:#B7CAD7;" d="M457.445,874.985l0.658-0.369l0.636-0.35l0.662-0.363l0.632-0.339l0.646-0.345l0.686-0.359
	l0.62-0.323l0.675-0.345l0.637-0.323l0.682-0.339l0.625-0.309l0.755-0.366l0.554-0.267l0.781-0.369l0.551-0.258l0.756-0.348
	l0.6-0.274l0.738-0.33l0.599-0.266l0.742-0.323l0.621-0.268l0.712-0.301l0.667-0.28l0.696-0.286l0.645-0.263l0.793-0.316
	l0.572-0.227l0.794-0.307l0.596-0.229l0.762-0.287l0.652-0.243l0.706-0.257l0.682-0.246l0.785-0.277l0.589-0.206l0.789-0.27
	l0.665-0.224l0.691-0.229l0.725-0.237l0.722-0.231l0.695-0.219l0.722-0.223l0.712-0.217l0.754-0.224l0.665-0.196l0.739-0.212
	l0.734-0.208l0.731-0.201l0.695-0.19l0.779-0.207l0.667-0.175l0.826-0.21l0.622-0.156l0.832-0.203l0.663-0.16l0.792-0.186
	l0.681-0.157l0.8-0.179l0.699-0.154l0.755-0.162l0.749-0.157l0.735-0.15l0.77-0.154l0.723-0.14l0.763-0.145l0.803-0.148l0.671-0.121
	l0.828-0.144l0.715-0.121l0.798-0.131l0.723-0.116l0.805-0.124l0.709-0.107l0.819-0.118l0.743-0.104l0.77-0.104l0.778-0.101
	l0.778-0.098l0.757-0.092l0.788-0.091l0.768-0.086l0.809-0.086l0.714-0.073l0.888-0.086l0.669-0.062l0.87-0.077l0.727-0.061
	l0.825-0.065l0.77-0.057l0.833-0.058l0.711-0.047l0.876-0.053l0.723-0.04l0.88-0.045l0.717-0.034l0.844-0.036l0.777-0.029
	l0.829-0.027l0.788-0.023l0.832-0.02l0.752-0.015l0.855-0.014l0.784-0.008l0.838-0.006l0.764-0.002l0.885,0.002l0.751,0.005
	l0.842,0.008l0.839,0.013l0.795,0.015l0.788,0.019l0.911,0.025l0.739,0.024l0.866,0.031l0.775,0.032l0.93,0.042l0.717,0.036
	l0.908,0.048l0.757,0.044l0.92,0.056l0.76,0.051l0.909,0.064l0.748,0.056l0.913,0.072l0.794,0.066l0.898,0.078l0.729,0.067
	l0.985,0.094l0.713,0.072l0.938,0.097l0.812,0.088l0.875,0.097l0.794,0.093l0.923,0.111l0.785,0.098l0.92,0.118l0.76,0.101
	l0.984,0.134l0.68,0.096l1.031,0.148l0.73,0.11l0.971,0.148l0.757,0.119l0.982,0.158l0.728,0.121l0.987,0.166l0.778,0.135
	l0.964,0.171l0.76,0.138l0.982,0.181l0.726,0.138l1.043,0.2l0.668,0.132l1.087,0.217l0.678,0.139l1.048,0.218l0.765,0.164
	l0.989,0.213l0.77,0.171l0.993,0.222l0.811,0.186l0.924,0.214l0.903,0.214l0.869,0.207l0.88,0.216l0.926,0.229l0.798,0.202
	l0.977,0.248l0.856,0.224l0.921,0.241l0.864,0.232l0.938,0.253l0.771,0.213l1.07,0.297l0.635,0.18l1.172,0.334l0.672,0.196
	l1.088,0.319l0.782,0.234l1.043,0.313l0.782,0.239l1.009,0.311l0.783,0.246l1.059,0.334l0.703,0.226l1.136,0.367l0.623,0.205
	l1.202,0.398l0.66,0.223l1.143,0.386l0.758,0.261l1.077,0.373l0.742,0.261l1.093,0.386l0.743,0.266l1.097,0.396l0.776,0.285
	l1.073,0.396l0.664,0.248l1.204,0.451l0.623,0.238l1.231,0.472l0.609,0.236l1.234,0.482l0.627,0.248l1.25,0.498l0.643,0.26
	l1.183,0.48l0.693,0.285l1.225,0.505l0.501,0.21l1.333,0.559l0.719,0.307l1.16,0.496l0.64,0.277l1.246,0.542l0.585,0.258
	l1.308,0.579l0.446,0.2c0.485,0.217,0.969,0.434,1.454,0.653l0.304,0.139c0.532,0.241,1.064,0.484,1.596,0.729l0.177,0.082
	c0.569,0.262,1.138,0.526,1.707,0.793l0.262,0.124c0.536,0.251,1.073,0.504,1.611,0.759l0.417,0.199c0.499,0.238,1,0.477,1.5,0.718
	l0.185,0.09c1.206,0.583,2.414,1.174,3.623,1.775l0.107,0.053c0.595,0.296,1.189,0.594,1.785,0.894l0.26,0.132
	c6.273,3.17,12.598,6.591,18.97,10.27c19.343,11.168,38.253,24.203,56.564,38.817c3.663,2.923,7.301,5.909,10.914,8.956
	c13.248,11.172,26.156,23.165,38.659,35.863c2.842,2.886,5.663,5.809,8.462,8.766c7.277,7.69,14.408,15.618,21.379,23.761
	c2.682,3.131,5.339,6.295,7.972,9.489c3.05,3.699,6.067,7.44,9.05,11.219l0.654,0.83c1.432,1.82,2.857,3.649,4.274,5.486
	c0.629,0.817,1.257,1.636,1.883,2.456c0.892,1.168,1.781,2.338,2.666,3.513c0.502,0.667,1.004,1.334,1.504,2.003
	c2.501,3.343,4.975,6.714,7.423,10.11c0.979,1.358,1.954,2.721,2.924,4.087c1.94,2.733,3.864,5.483,5.768,8.247
	c0.952,1.382,1.9,2.768,2.844,4.158c0.471,0.695,0.941,1.391,1.412,2.088c1.125,1.671,2.243,3.348,3.356,5.029
	c1.371,2.073,2.732,4.153,4.083,6.241c1.498,2.316,2.984,4.641,4.456,6.975c1.342,2.127,2.673,4.262,3.994,6.403
	c0.337,0.546,0.673,1.093,1.008,1.639c0.714,1.164,1.424,2.329,2.131,3.497c0.873,1.442,1.74,2.886,2.603,4.334
	c1.725,2.896,3.43,5.804,5.116,8.723c0.422,0.73,0.842,1.46,1.261,2.192c0.686,1.198,1.367,2.399,2.048,3.601
	c0.979,1.733,1.952,3.469,2.917,5.208c0.593,1.07,1.183,2.142,1.771,3.215c0.845,1.541,1.684,3.086,2.517,4.633
	c1.781,3.307,3.537,6.627,5.265,9.959c0.586,1.13,1.168,2.26,1.748,3.393c0.57,1.114,1.139,2.229,1.703,3.345
	c1.518,3.001,3.013,6.01,4.487,9.029c1.105,2.263,2.198,4.531,3.278,6.803c1.44,3.029,2.858,6.067,4.252,9.112
	c2.789,6.089,5.487,12.205,8.09,18.344c0.977,2.302,1.94,4.608,2.889,6.916c1.177,2.859,2.331,5.722,3.465,8.59
	c0.207,0.522,0.412,1.044,0.618,1.567c0.487,1.241,0.972,2.483,1.452,3.725c0.298,0.773,0.594,1.546,0.891,2.319
	c0.375,0.985,0.748,1.97,1.119,2.955c1.008,2.678,1.998,5.36,2.968,8.043l0.445,1.234c0.411,1.144,0.819,2.287,1.224,3.432
	l0.427,1.213c2.59,7.377,5.038,14.77,7.338,22.169l0.342,1.105c0.368,1.193,0.732,2.386,1.093,3.579
	c0.29,0.96,0.579,1.92,0.864,2.88c1.107,3.725,2.174,7.451,3.203,11.177c0.262,0.948,0.522,1.897,0.78,2.845
	c0.422,1.557,0.837,3.115,1.246,4.673c3.678,14.018,6.803,28.019,9.339,41.942c0.141,0.774,0.279,1.547,0.417,2.32
	c4.94,27.828,7.514,55.331,7.438,82.015c-0.014,5.016-0.123,9.953-0.323,14.811l-0.016,0.42c-0.02,0.48-0.043,0.958-0.065,1.436
	l-0.032,0.708c-0.027,0.555-0.055,1.107-0.084,1.66l-0.023,0.446c-0.029,0.546-0.061,1.091-0.092,1.635l-0.027,0.485l-0.084,1.342
	l-0.049,0.791c-0.035,0.528-0.072,1.054-0.109,1.579l-0.033,0.474c-0.034,0.484-0.07,0.966-0.107,1.448l-0.05,0.667l-0.102,1.268
	l-0.066,0.812l-0.113,1.312l-0.063,0.735l-0.123,1.333l-0.068,0.729l-0.106,1.072l-0.1,1.008l-0.117,1.116l-0.092,0.87
	c-0.049,0.452-0.099,0.902-0.151,1.352l-0.073,0.659l-0.155,1.315l-0.083,0.704l-0.163,1.321l-0.084,0.671l-0.166,1.275
	l-0.095,0.726l-0.17,1.24l-0.1,0.731c-0.064,0.454-0.129,0.907-0.195,1.359l-0.084,0.582l-0.184,1.231l-0.117,0.777l-0.158,1.013
	l-0.152,0.963l-0.142,0.871l-0.174,1.067l-0.161,0.947l-0.162,0.952l-0.177,1.003l-0.162,0.912l-0.196,1.069l-0.15,0.814l-0.2,1.055
	l-0.163,0.85l-0.207,1.054l-0.163,0.822l-0.203,0.996l-0.182,0.888l-0.214,1.012l-0.177,0.836l-0.228,1.044l-0.173,0.788
	l-0.222,0.986l-0.205,0.904l-0.2,0.858l-0.224,0.955l-0.213,0.888l-0.224,0.924l-0.234,0.949l-0.208,0.836l-0.236,0.922
	l-0.229,0.892l-0.24,0.916l-0.225,0.852l-0.238,0.883l-0.251,0.922l-0.218,0.784l-0.274,0.98l-0.23,0.808l-0.266,0.922l-0.242,0.823
	l-0.272,0.921l-0.253,0.839l-0.265,0.874l-0.267,0.864l-0.26,0.83l-0.296,0.934l-0.244,0.761l-0.309,0.947l-0.243,0.739
	l-0.294,0.882l-0.288,0.855l-0.27,0.788l-0.3,0.868l-0.276,0.786l-0.313,0.886l-0.273,0.759l-0.324,0.891l-0.279,0.757l-0.318,0.856
	l-0.304,0.808l-0.313,0.822l-0.301,0.778l-0.326,0.838l-0.314,0.795l-0.312,0.782l-0.316,0.782l-0.348,0.854l-0.312,0.752
	l-0.318,0.761l-0.369,0.874l-0.295,0.69l-0.37,0.855l-0.315,0.721l-0.347,0.785l-0.346,0.775l-0.344,0.761l-0.355,0.778l-0.342,0.74
	l-0.359,0.769l-0.366,0.775l-0.337,0.708l-0.398,0.824l-0.324,0.664l-0.392,0.797l-0.364,0.732l-0.365,0.726l-0.369,0.726
	l-0.393,0.764l-0.358,0.692l-0.407,0.777l-0.352,0.664l-0.417,0.78l-0.357,0.661l-0.427,0.781l-0.353,0.642l-0.413,0.741
	l-0.402,0.713l-0.391,0.687l-0.405,0.705l-0.422,0.725l-0.368,0.628l-0.452,0.763l-0.381,0.637l-0.436,0.721l-0.397,0.651
	l-0.432,0.701l-0.421,0.676l-0.417,0.662l-0.436,0.686l-0.405,0.632l-0.468,0.722l-0.4,0.61l-0.461,0.699l-0.411,0.616l-0.454,0.673
	l-0.449,0.66l-0.44,0.64l-0.425,0.612l-0.482,0.687l-0.434,0.614l-0.457,0.64l-0.457,0.633l-0.457,0.627l-0.445,0.605l-0.492,0.661
	l-0.444,0.593l-0.486,0.641l-0.434,0.568l-0.503,0.65l-0.474,0.609l-0.445,0.565l-0.508,0.639l-0.455,0.566l-0.496,0.613
	l-0.505,0.616l-0.454,0.55l-0.51,0.611l-0.48,0.57l-0.501,0.587l-0.489,0.57l-0.516,0.593l-0.472,0.54l-0.527,0.595l-0.486,0.545
	l-0.505,0.56l-0.522,0.573l-0.511,0.554l-0.493,0.532l-0.55,0.585l-0.48,0.508l-0.563,0.588l-0.474,0.491l-0.568,0.582l-0.489,0.497
	l-0.569,0.571l-0.482,0.481l-0.588,0.578l-0.469,0.459l-0.613,0.592l-0.468,0.448l-0.585,0.553l-0.507,0.477l-0.556,0.515
	l-0.554,0.509l-0.539,0.49l-0.546,0.492l-0.578,0.515l-0.526,0.465l-0.599,0.522l-0.514,0.446l-0.607,0.518l-0.515,0.438
	l-0.604,0.505l-0.536,0.447l-0.613,0.503l-0.52,0.423l-0.61,0.49l-0.548,0.438l-0.593,0.467l-0.565,0.442l-0.647,0.498l-0.488,0.374
	l-0.678,0.512l-0.513,0.385l-0.626,0.462l-0.571,0.42l-0.599,0.433l-0.573,0.412l-0.639,0.453l-0.569,0.4l-0.625,0.432l-0.568,0.391
	l-0.673,0.456l-0.533,0.359l-0.719,0.476l-0.491,0.324l-0.696,0.45l-0.553,0.357l-0.637,0.403l-0.601,0.379l-0.676,0.418
	l-0.55,0.339l-0.733,0.443l-0.515,0.311l-0.766,0.452l-0.486,0.286l-0.136,0.08l35.395-20.569
	c53.674-31.191,86.962-97.502,87.229-191.729c0.539-189.749-132.927-420.919-297.994-516.221
	c-83.104-47.98-158.367-52.43-212.714-20.847l-35.396,20.57l0.494-0.284l0.649-0.372L457.445,874.985z"/>
<path style="fill:#8998A6;" d="M880.701,1405.271c-139.031-80.27-251.274-274.756-250.821-434.44
	c0.037-13.143,0.837-25.64,2.349-37.466c-46.847-19.328-89.566-21.443-124.445-8.466c-35.215,29.461-56.406,80.685-56.602,149.691
	c-0.453,159.684,111.791,354.171,250.822,434.44c60.921,35.173,116.839,42.557,160.48,26.318
	c28.51-23.851,47.824-61.964,54.243-112.222C904.959,1418.271,892.931,1412.332,880.701,1405.271z"/>
<path style="fill:#8998A6;" d="M1549.088,983.203c-72.434-48.528-138.867-139.228-167.982-238.812
	c-8.153-27.884-12.762-54.368-14.124-78.83c-4.065-2.643-8.148-5.151-12.243-7.514c-24.535-14.164-49.501-23.218-73.657-25.852
	c-15.99-1.731-30.656-0.544-43.849,3.238c-0.834,0.258-1.661,0.527-2.482,0.805c-40.6,37.719-52.913,114.064-26.069,205.88
	c30.628,104.758,103.363,199.496,180.304,243.918c24.539,14.168,49.52,23.219,73.682,25.835c16.954,1.835,32.417,0.389,46.213-3.953
	C1536.781,1082.062,1551.348,1037.988,1549.088,983.203z"/>
<path style="fill:#B7CAD7;" d="M1636.926,888.602c-41.866-143.256-141.381-272.789-246.585-333.529
	c-33.554-19.372-67.68-31.746-100.708-35.34c-34.404-3.725-64.333,2.434-88.976,16.755l-35.396,20.569l0.361-0.207l0.411-0.236
	l0.724-0.411l0.47-0.263l0.676-0.374l0.497-0.272l0.663-0.358l0.534-0.284l0.633-0.333l0.535-0.277l0.695-0.357l0.447-0.226
	l0.739-0.369l0.496-0.244l0.692-0.336l0.523-0.25l0.662-0.313l0.559-0.26l0.685-0.315l0.513-0.232l0.714-0.319l0.515-0.227
	l0.699-0.304l0.541-0.231l0.717-0.303l0.524-0.218l0.707-0.29l0.54-0.218l0.734-0.292l0.484-0.189l0.794-0.306l0.483-0.182
	l0.759-0.284l0.537-0.196l0.742-0.268l0.53-0.188l0.76-0.266l0.52-0.178l0.763-0.258l0.562-0.186l0.718-0.235l0.612-0.195
	l0.698-0.22l0.563-0.173l0.783-0.238l0.519-0.154l0.772-0.226l0.601-0.171l0.728-0.205l0.575-0.157l0.775-0.21l0.569-0.15
	l0.749-0.194l0.616-0.155l0.745-0.185l0.625-0.151l0.711-0.169l0.667-0.153l0.699-0.159l0.653-0.143l0.734-0.159l0.605-0.126
	l0.777-0.16l0.565-0.112l0.847-0.166l0.51-0.095l0.858-0.159l0.611-0.108l0.783-0.136l0.623-0.104l0.775-0.127l0.657-0.103
	l0.761-0.117l0.647-0.095l0.771-0.111l0.611-0.083l0.837-0.112l0.548-0.069l0.887-0.11l0.571-0.066l0.861-0.099l0.635-0.067
	l0.794-0.083l0.634-0.061l0.862-0.082l0.477-0.041l0.974-0.083l0.586-0.045l0.859-0.065l0.703-0.048l0.772-0.051l0.648-0.037
	l0.859-0.049l0.493-0.024l1.008-0.048l0.513-0.02l0.948-0.036l0.775-0.023l0.715-0.021l0.677-0.014l0.88-0.017l0.378-0.004
	l1.136-0.012l0.434-0.001l1.079-0.001l0.453,0.003l1.09,0.008l0.309,0.005l1.227,0.02l0.317,0.008l1.215,0.031l0.364,0.012
	l1.202,0.042l0.101,0.005c1,0.039,2.004,0.087,3.013,0.144l0.05,0.003c3.108,0.177,6.254,0.437,9.438,0.781
	c12.386,1.348,24.926,3.931,37.532,7.654c4.202,1.241,8.411,2.609,12.625,4.1c1.58,0.559,3.161,1.135,4.742,1.729
	c4.215,1.583,8.435,3.288,12.653,5.111c2.109,0.912,4.219,1.853,6.327,2.824c2.109,0.97,4.217,1.97,6.325,2.999
	c6.849,3.343,13.688,6.989,20.503,10.924c33.699,19.456,66.813,45.969,97.636,77.732c9.022,9.297,17.847,19.043,26.433,29.192
	c2.146,2.538,4.278,5.1,6.393,7.688c4.232,5.175,8.402,10.448,12.503,15.813c2.052,2.683,4.085,5.389,6.101,8.117
	c1.345,1.819,2.681,3.648,4.009,5.486c3.321,4.596,6.591,9.254,9.809,13.969c1.931,2.829,3.842,5.68,5.732,8.549
	c1.262,1.914,2.513,3.836,3.757,5.766c8.08,12.551,15.778,25.47,23.042,38.699c1.118,2.035,2.225,4.078,3.321,6.128
	c4.387,8.198,8.605,16.512,12.643,24.925c14.132,29.448,26.049,60.128,35.207,91.465c0.297,1.019,0.59,2.035,0.881,3.051
	l0.148,0.519c0.583,2.048,1.153,4.091,1.708,6.128l0.108,0.397c0.56,2.061,1.105,4.116,1.636,6.165l0.089,0.342
	c0.526,2.036,1.038,4.065,1.535,6.089l0.127,0.519c0.488,1.997,0.964,3.988,1.425,5.973l0.104,0.451
	c0.458,1.975,0.901,3.944,1.33,5.906l0.121,0.551c0.427,1.963,0.841,3.919,1.241,5.87l0.097,0.478
	c0.4,1.956,0.784,3.905,1.156,5.848l0.09,0.468c0.369,1.94,0.724,3.872,1.067,5.799l0.083,0.47c0.341,1.926,0.667,3.844,0.979,5.756
	l0.082,0.499c0.151,0.931,0.3,1.86,0.445,2.788l0.008,0.047c0.148,0.946,0.291,1.89,0.432,2.833l0.079,0.531
	c0.131,0.888,0.261,1.776,0.387,2.661l0.022,0.155c0.135,0.949,0.266,1.895,0.393,2.841l0.054,0.399
	c0.256,1.902,0.499,3.797,0.727,5.684l0.05,0.419c0.11,0.909,0.216,1.818,0.319,2.724l0.008,0.074
	c0.107,0.942,0.209,1.883,0.31,2.821l0.042,0.395c0.094,0.891,0.185,1.781,0.274,2.669l0.013,0.13
	c0.091,0.922,0.178,1.843,0.263,2.761l0.041,0.45c0.08,0.876,0.157,1.751,0.231,2.623l0.009,0.107
	c0.078,0.924,0.152,1.846,0.223,2.767l0.029,0.381c0.066,0.87,0.13,1.738,0.19,2.605l0.011,0.154
	c0.062,0.894,0.121,1.786,0.177,2.676l0.03,0.49c0.051,0.838,0.101,1.674,0.146,2.508l0.01,0.165
	c0.047,0.878,0.091,1.755,0.133,2.629l0.024,0.524c0.038,0.84,0.074,1.678,0.107,2.514l0.004,0.096
	c0.035,0.897,0.066,1.792,0.095,2.685l0.012,0.404c0.025,0.829,0.049,1.656,0.068,2.481l0.005,0.172
	c0.021,0.865,0.037,1.728,0.051,2.588l0.007,0.501c0.011,0.77,0.02,1.539,0.027,2.305l0.003,0.311
	c0.006,0.851,0.01,1.699,0.01,2.546v0.44c0,0.786-0.004,1.572-0.01,2.354l-0.001,0.245c-0.007,0.852-0.018,1.701-0.031,2.549
	l-0.007,0.411c-0.013,0.773-0.029,1.543-0.047,2.312l-0.006,0.282c-0.02,0.831-0.044,1.659-0.07,2.486l-0.016,0.473
	c-0.025,0.747-0.052,1.491-0.082,2.234l-0.011,0.287c-0.034,0.827-0.07,1.652-0.111,2.474l-0.022,0.435
	c-0.037,0.752-0.077,1.502-0.12,2.249l-0.014,0.247c-0.048,0.822-0.098,1.641-0.152,2.458l-0.029,0.421
	c-0.049,0.74-0.101,1.478-0.156,2.214l-0.019,0.271c-0.061,0.816-0.126,1.629-0.193,2.441l-0.03,0.356
	c-0.063,0.744-0.128,1.485-0.196,2.225l-0.024,0.27c-0.072,0.79-0.149,1.577-0.228,2.362l-0.048,0.473
	c-0.069,0.677-0.14,1.352-0.214,2.026l-0.044,0.401c-0.085,0.773-0.174,1.545-0.265,2.313l-0.051,0.419
	c-0.082,0.688-0.167,1.374-0.254,2.059l-0.044,0.349c-0.098,0.768-0.201,1.534-0.306,2.297l-0.058,0.423
	c-0.094,0.675-0.189,1.348-0.287,2.02l-0.051,0.352c-0.111,0.752-0.224,1.501-0.341,2.247l-0.071,0.449
	c-0.103,0.657-0.209,1.312-0.316,1.965l-0.059,0.356c-0.124,0.742-0.25,1.481-0.379,2.218l-0.076,0.432
	c-0.112,0.633-0.227,1.263-0.342,1.892l-0.081,0.442c-0.135,0.724-0.273,1.446-0.413,2.166l-0.077,0.389
	c-0.125,0.638-0.253,1.273-0.382,1.907l-0.082,0.397c-0.149,0.721-0.299,1.439-0.454,2.155l-0.08,0.367
	c-0.14,0.648-0.283,1.294-0.429,1.938l-0.072,0.322c-0.161,0.707-0.324,1.411-0.49,2.114l-0.108,0.453
	c-0.145,0.608-0.292,1.215-0.441,1.819l-0.086,0.351c-0.176,0.706-0.354,1.41-0.535,2.112l-0.089,0.339
	c-0.161,0.622-0.325,1.242-0.491,1.859l-0.094,0.35c-0.185,0.686-0.373,1.37-0.564,2.05l-0.109,0.384
	c-0.171,0.606-0.344,1.21-0.519,1.812l-0.096,0.331c-0.202,0.689-0.406,1.375-0.613,2.058l-0.083,0.274
	c-0.186,0.608-0.374,1.214-0.563,1.818l-0.118,0.374c-0.212,0.669-0.426,1.336-0.643,1.999l-0.097,0.298
	c-0.189,0.574-0.38,1.146-0.573,1.716l-0.146,0.433c-0.22,0.648-0.444,1.292-0.669,1.934l-0.108,0.305
	c-0.204,0.577-0.411,1.151-0.618,1.725l-0.132,0.365c-0.234,0.64-0.47,1.277-0.71,1.912l-0.124,0.326
	c-0.209,0.552-0.421,1.102-0.634,1.65l-0.15,0.386c-0.249,0.635-0.499,1.267-0.753,1.897l-0.09,0.223
	c-0.237,0.585-0.476,1.167-0.717,1.747l-0.121,0.292c-0.262,0.628-0.528,1.253-0.796,1.876l-0.116,0.268
	c-0.239,0.552-0.48,1.101-0.723,1.649l-0.14,0.317c-0.274,0.615-0.552,1.227-0.831,1.836l-0.118,0.255
	c-0.249,0.541-0.5,1.079-0.754,1.615l-0.153,0.325c-0.283,0.594-0.568,1.186-0.857,1.775l-0.147,0.299
	c-0.253,0.514-0.507,1.026-0.763,1.535l-0.167,0.333c-0.296,0.585-0.594,1.167-0.895,1.746l-0.128,0.244
	c-0.273,0.522-0.547,1.041-0.824,1.558l-0.16,0.3c-0.309,0.576-0.621,1.148-0.935,1.718l-0.129,0.232
	c-0.276,0.498-0.554,0.993-0.835,1.486l-0.201,0.354c-0.313,0.548-0.628,1.095-0.946,1.637l-0.163,0.276
	c-0.284,0.483-0.571,0.963-0.859,1.442l-0.191,0.315c-0.331,0.548-0.666,1.094-1.002,1.635l-0.113,0.181
	c-0.309,0.495-0.62,0.988-0.933,1.478l-0.188,0.294c-0.347,0.54-0.696,1.077-1.048,1.611l-0.091,0.136
	c-0.326,0.493-0.654,0.983-0.985,1.471l-0.194,0.286c-0.357,0.523-0.715,1.044-1.077,1.561l-0.118,0.167
	c-0.326,0.464-0.653,0.926-0.983,1.385l-0.224,0.312c-0.368,0.51-0.738,1.018-1.112,1.522l-0.084,0.113
	c-0.345,0.465-0.693,0.927-1.043,1.386l-0.224,0.295c-0.375,0.49-0.753,0.978-1.132,1.463l-0.149,0.188l-1.044,1.309l-0.208,0.259
	c-0.394,0.486-0.789,0.969-1.189,1.448l-0.097,0.117l-1.103,1.305l-0.247,0.289c-0.401,0.467-0.804,0.932-1.211,1.392l-0.069,0.077
	l-1.173,1.311l-0.222,0.245c-0.41,0.45-0.823,0.899-1.238,1.343l-0.149,0.159l-1.135,1.195l-0.252,0.263l-1.295,1.324l-0.012,0.012
	l-1.272,1.263l-0.259,0.254l-1.306,1.258l-0.092,0.087l-1.268,1.185l-0.224,0.207c-0.45,0.413-0.903,0.824-1.357,1.231l-0.095,0.084
	l-1.268,1.115l-0.282,0.245c-0.457,0.394-0.915,0.786-1.376,1.173l-0.055,0.047l-1.328,1.097l-0.297,0.241
	c-0.467,0.379-0.936,0.756-1.408,1.128l-0.034,0.026c-0.46,0.361-0.92,0.719-1.382,1.073l-0.298,0.228
	c-0.478,0.364-0.957,0.725-1.441,1.083l-0.026,0.019c-0.471,0.348-0.945,0.692-1.421,1.034l-0.298,0.214
	c-0.489,0.349-0.98,0.695-1.475,1.038l-0.044,0.03c-0.469,0.325-0.942,0.645-1.415,0.963l-0.351,0.234
	c-0.489,0.326-0.98,0.65-1.475,0.97l-0.079,0.051c-0.484,0.312-0.971,0.622-1.46,0.927l-0.281,0.176
	c-0.516,0.321-1.033,0.64-1.553,0.953l-0.025,0.015c-0.505,0.304-1.013,0.604-1.523,0.901l-0.164,0.097l35.396-20.57
	C1651.647,1144.505,1678.194,1029.891,1636.926,888.602z"/>
<path style="fill:#727D88;" d="M521.405,1292.469c0,0-65.389-313.354,103.601-352.417c0,0-56.046-23.778-112.942-5.095
	C512.064,934.957,394.026,1037.71,521.405,1292.469z"/>
<path style="fill:#727D88;" d="M906.941,1427.848c0,0-93.149-19.887-178.2-158.307c0,0,123.124,231.638,123.851,261.552
	C852.592,1531.094,900.996,1492.743,906.941,1427.848z"/>
<path style="fill:#9587BC;" d="M309.955,1321.342l-60.505,86.618l80.249-57.958c10.828,16.56,27.387,20.381,27.387,20.381
	c-64.327-84.07-131.838-300.616-131.838-300.616C245.628,1211.158,309.955,1321.342,309.955,1321.342z"/>
<path style="fill:#9587BC;" d="M415.785,1519.417c87.793,121.661,185.922,186.595,185.922,186.595l18.417,141.407l13.32-127.124
	c17.84,8.553,33.984,3.241,33.984,3.241C568.849,1684.962,415.785,1519.417,415.785,1519.417z"/>
<path style="fill:#40337F;" d="M1029.381,1171.114C947.03,979.968,797,787.396,597.31,712.132
	c-105.553-38.715-226.641-27.898-294.237,70.989c-20.736,29.253-33.862,63.072-42.103,97.689
	c12.236-32.808,28.656-64.427,51.291-90.91c70.29-84.438,178.35-87.381,273.772-47.364
	c186.581,81.072,324.512,262.866,407.573,444.013c74.901,161.863,139.645,453.821-36.319,571.482
	c65.932-31.037,107.25-97.843,124.957-166.668C1116.568,1450.795,1084.654,1302.099,1029.381,1171.114z"/>
<path style="fill:#727D88;" d="M1246.382,906.283c0,0-47.755-228.852,75.664-257.381c0,0-40.933-17.366-82.486-3.721
	C1239.559,645.181,1153.352,720.224,1246.382,906.283z"/>
<path style="fill:#727D88;" d="M1502.227,1107.351c0,0,35.402-49.745,35.402-120.998c0,0-59.232-16.11-140.306-176.105
	C1417.041,849.78,1516.194,1052.652,1502.227,1107.351z"/>
<path style="fill:#9587BC;" d="M979.268,767.202l70.577-15.672c2.474,14.236,12.475,21.587,12.475,21.587
	c-18.838-74.981-1.514-239.73-1.514-239.73c-27.206,100.72-15.917,193.214-15.917,193.214l-11.62,7.189l-26.394,16.331
	L979.268,767.202z"/>
<path style="fill:#9587BC;" d="M1110.708,913.047c35.413,103.692,90.13,169.957,90.13,169.957l-17.257,102.706l36.385-85.968
	c10.641,9.776,23.05,9.504,23.05,9.504C1182.37,1061.299,1110.708,913.047,1110.708,913.047z"/>
<path style="fill:#40337F;" d="M1677.424,1159.302c43.315-99.654,27.786-214.273-7.964-313.636
	c-46.048-124.912-129.901-237.52-241.056-311.769c-86.857-57.517-209.835-93.347-303.206-30.828
	c-22.109,14.814-40.291,34.805-54.218,57.265c19.902-26.117,45.349-46.995,75.029-60.134
	c103.792-43.721,219.106,8.969,300.943,74.977c127.612,104.361,219.649,263.298,236.599,428.097
	c10.311,99.988-19.122,218.563-117.939,263.958C1616.562,1249.812,1655.87,1208.014,1677.424,1159.302z"/>
</svg>
